# xmcd CD database file
#
# Track frame offsets:
#	150
#	24097
#	51019
#	77783
#	102221
#	129961
#	166682
#	178433
#	212475
#	233500
#	259718
#	287253
#
# Disc length: 4051 seconds
#
# Revision: 0
# Processed by: cddbd v1.5.2PL0 Copyright (c) Steve Scherf et al.
# Submitted via: CDex 1.51
#
DISCID=8c0fd10c
DTITLE=Victor Dvoskin - There's a Small Hotel
DYEAR=2001
DGENRE=Jazz
TTITLE0=Song for Edward
TTITLE1=Once again
TTITLE2=The Man I love
TTITLE3=Pensees
TTITLE4=Yesterdays
TTITLE5=Estate
TTITLE6=In Walked Bud
TTITLE7=I Love You Porgy
TTITLE8=It's You or No One
TTITLE9=I Got it bad
TTITLE10=Soflty
TTITLE11=There's a Small Hotel
EXTD=YEAR: 2001
EXTT0=
EXTT1=
EXTT2=
EXTT3=
EXTT4=
EXTT5=
EXTT6=
EXTT7=
EXTT8=
EXTT9=
EXTT10=
EXTT11=
PLAYORDER=
